<svg xmlns="http://www.w3.org/2000/svg" viewBox="0 0 640 800">
  <defs>
    <linearGradient id="bg" x1="0" x2="1" y1="0" y2="1">
      <stop stop-color="#e8faf5"/>
      <stop offset=".55" stop-color="#fff7eb"/>
      <stop offset="1" stop-color="#ffe6dc"/>
    </linearGradient>
    <linearGradient id="accent" x1="0" x2="1">
      <stop stop-color="#0f766e"/>
      <stop offset="1" stop-color="#f9735b"/>
    </linearGradient>
  </defs>
  <rect width="640" height="800" fill="url(#bg)"/>
  <circle cx="320" cy="230" r="108" fill="#17202a"/>
  <circle cx="320" cy="206" r="76" fill="#f8cda8"/>
  <path d="M180 760c24-196 256-196 280 0H180Z" fill="#17202a"/>
  <path d="M235 503c50 42 120 42 170 0l47 257H188l47-257Z" fill="url(#accent)" opacity=".92"/>
  <rect x="70" y="76" width="180" height="50" rx="12" fill="#fff" opacity=".75"/>
  <rect x="390" y="118" width="150" height="50" rx="12" fill="#fff" opacity=".65"/>
  <path d="M96 618h126M420 628h124M86 666h96M456 680h88" stroke="#0f766e" stroke-width="12" stroke-linecap="round" opacity=".35"/>
  <text x="320" y="724" text-anchor="middle" font-family="Inter, Arial" font-size="28" font-weight="800" fill="#fff">Vatsal Lukka</text>
</svg>
